#!Matlab matrix to amc conversion
:FULLY-SPECIFIED
:DEGREES
1
root 9.287220 16.950000 -34.276200 0.000000 0.000000 0.000000
lowerback 0.000000 0.000000 0.000000
upperback 0.000000 0.000000 0.000000
thorax 0.000000 0.000000 0.000000
lowerneck -16.000000 0.000000 0.000000
upperneck 21.000000 0.000000 0.000000
head 11.000000 0.000000 0.000000
rclavicle 0.000000 0.000000
rhumerus 0.000000 0.000000 0.000000
rradius 0.000000
rwrist 0.000000
rhand 0.000000 0.000000
rfingers 0.000000
rthumb 0.000000 0.000000
lclavicle 0.000000 0.000000
lhumerus 0.000000 0.000000 0.000000
lradius 0.000000
lwrist 0.000000
lhand 0.000000 0.000000
lfingers 0.000000
lthumb 0.000000 0.000000
rfemur 0.000000 0.000000 21.000000
rtibia 0.000000
rfoot 0.000000 0.000000
rtoes 0.000000
lfemur 0.000000 0.000000 -21.000000
ltibia 0.000000
lfoot 0.000000 0.000000
ltoes 0.000000
2
root 9.287220 16.950000 -34.276200 0.986845 1.634016 0.097100
lowerback -1.639452 0.808282 -1.473969
upperback -2.145149 1.041717 -0.517611
thorax -1.414549 0.549210 0.349574
lowerneck -14.725892 -2.403505 -2.085077
upperneck 34.672141 -4.701888 3.989345
head 14.878508 -1.632993 1.224660
rclavicle -0.000000 0.000000
rhumerus -39.908435 -5.323108 -78.858813
rradius 30.974615
rwrist -11.404044
rhand -6.586158 14.976407
rfingers 7.125020
rthumb 19.254309 -14.098829
lclavicle -0.000000 0.000000
lhumerus -37.333504 22.615702 68.914045
lradius 51.223752
lwrist 2.426615
lhand -5.014335 23.634854
lfingers 7.125020
lthumb 20.765024 52.474775
rfemur -31.235839 1.634059 22.064737
rtibia 51.506729
rfoot -10.656424 -19.243588
rtoes 0.247635
lfemur -17.904653 -9.152778 -23.282555
ltibia 29.652476
lfoot -22.167336 18.708505
ltoes -4.681103
3
root 9.273270 17.016600 -33.905900 1.247212 1.634016 -0.059181
lowerback -1.272093 0.685759 -1.600956
upperback -2.074789 0.861833 -0.102839
thorax -1.499426 0.465510 0.874182
lowerneck -15.156962 -2.394227 -2.024506
upperneck 34.082397 -4.528076 3.657463
head 14.736694 -1.598271 1.088217
rclavicle -0.000000 0.000000
rhumerus -39.685433 -5.458696 -78.704735
rradius 30.297104
rwrist -10.347795
rhand -6.069421 14.393251
rfingers 7.125020
rthumb 19.746892 -14.634251
lclavicle -0.000000 0.000000
lhumerus -35.611684 22.083590 70.152547
lradius 53.761037
lwrist 3.842889
lhand -4.763151 22.695982
lfingers 7.125020
lthumb 20.997464 51.483618
rfemur -33.566619 2.326433 21.659490
rtibia 45.649094
rfoot -11.833533 -19.180839
rtoes -2.953756
lfemur -15.762153 -9.247878 -23.410323
ltibia 27.728745
lfoot -22.695152 19.353234
ltoes -5.804682
4
root 9.268420 17.025800 -33.555600 1.476721 1.634016 -0.139701
lowerback -0.912900 0.560292 -1.760445
upperback -2.003687 0.677237 0.306669
thorax -1.575302 0.379774 1.402991
lowerneck -15.601602 -2.387889 -1.980943
upperneck 33.501165 -4.359477 3.339310
head 14.598212 -1.565410 0.961506
rclavicle -0.000000 0.000000
rhumerus -39.504826 -5.604661 -78.550176
rradius 29.674090
rwrist -9.367322
rhand -5.538917 13.787140
rfingers 7.125020
rthumb 20.252379 -15.188827
lclavicle -0.000000 0.000000
lhumerus -33.874274 21.549939 71.376930
lradius 56.353300
lwrist 5.229934
lhand -4.487954 21.742590
lfingers 7.125020
lthumb 21.252327 50.476390
rfemur -35.946659 3.063801 21.215421
rtibia 39.563026
rfoot -13.187669 -19.179960
rtoes -5.730841
lfemur -13.576889 -9.345713 -23.554620
ltibia 25.668445
lfoot -23.198642 20.001386
ltoes -6.930944
5
root 9.249270 17.016300 -33.220600 1.303238 1.634016 -0.036597
lowerback -0.890834 0.265182 -2.495956
upperback -1.885159 0.288742 0.427187
thorax -1.439151 0.196121 1.925272
lowerneck -16.015550 -2.515469 -2.183187
upperneck 32.922175 -4.476668 3.418616
head 14.437572 -1.632686 0.991920
rclavicle -0.000000 0.000000
rhumerus -40.104464 -6.800131 -77.950324
rradius 28.881405
rwrist -9.077929
rhand -5.339570 13.183368
rfingers 7.125020
rthumb 20.447426 -15.759504
lclavicle -0.000000 0.000000
lhumerus -32.519298 20.074609 72.008778
lradius 57.766670
lwrist 5.084853
lhand -4.814221 21.967403
lfingers 7.125020
lthumb 20.953822 50.758409
rfemur -36.369080 6.815714 17.654830
rtibia 31.735816
rfoot -16.597363 -21.859333
rtoes -3.215349
lfemur -9.022046 -9.547607 -24.200826
ltibia 20.697735
lfoot -22.013557 20.208018
ltoes -9.361816
6
root 9.246830 17.017700 -32.897400 1.147145 1.634016 0.018505
lowerback -0.874589 -0.023220 -3.221406
upperback -1.771081 -0.093160 0.546634
thorax -1.299482 0.016214 2.445309
lowerneck -16.470522 -2.647244 -2.396362
upperneck 32.352769 -4.599157 3.499321
head 14.282509 -1.702288 1.023037
rclavicle -0.000000 0.000000
rhumerus -40.712070 -7.943196 -77.387580
rradius 28.101774
rwrist -8.838039
rhand -5.124609 12.642918
rfingers 7.125020
rthumb 20.657106 -16.257033
lclavicle -0.000000 0.000000
lhumerus -31.181243 18.635235 72.620485
lradius 59.201232
lwrist 4.924306
lhand -5.105717 22.153599
lfingers 7.125020
lthumb 20.688417 50.999990
rfemur -36.845873 10.446629 14.269170
rtibia 24.172722
rfoot -19.950213 -24.550405
rtoes -0.852011
lfemur -4.521212 -9.753444 -24.832413
ltibia 16.104016
lfoot -20.877815 20.426828
ltoes -11.675186
7
root 9.219480 17.016100 -32.563300 1.066531 1.634016 -0.038458
lowerback -1.051459 -0.359603 -3.457831
upperback -1.865244 -0.526209 0.685972
thorax -1.246117 -0.197453 2.646191
lowerneck -17.085687 -2.754934 -2.638062
upperneck 32.138175 -4.490321 3.116128
head 14.293815 -1.743059 0.915572
rclavicle -0.000000 0.000000
rhumerus -41.346505 -8.501197 -76.937105
rradius 27.170970
rwrist -8.087346
rhand -4.845263 12.285860
rfingers 7.125020
rthumb 20.930062 -16.567922
lclavicle -0.000000 0.000000
lhumerus -32.000481 18.035039 72.155037
lradius 58.512179
lwrist 2.944280
lhand -5.204658 21.700208
lfingers 7.125020
lthumb 20.593411 50.554666
rfemur -37.176423 12.477056 12.895722
rtibia 23.020633
rfoot -21.180776 -25.650992
rtoes 1.989813
lfemur -0.616806 -9.925151 -25.063203
ltibia 12.399684
lfoot -19.525142 20.354453
ltoes -14.518688
8
root 9.210440 16.998300 -32.235300 1.019526 1.634016 -0.059054
lowerback -1.219767 -0.667486 -3.591453
upperback -1.955119 -0.927961 0.807173
thorax -1.199712 -0.395910 2.809946
lowerneck -17.611394 -2.854569 -2.855897
upperneck 31.925480 -4.374289 2.741983
head 14.303137 -1.779449 0.816614
rclavicle -0.000000 0.000000
rhumerus -41.860375 -8.963522 -76.540953
rradius 26.309388
rwrist -7.388405
rhand -4.592743 12.079924
rfingers 7.125020
rthumb 21.177029 -16.738263
lclavicle -0.000000 0.000000
lhumerus -32.749185 17.455360 71.709126
lradius 57.803329
lwrist 1.059544
lhand -5.333988 21.299177
lfingers 7.125020
lthumb 20.469193 50.167290
rfemur -37.426844 13.671851 12.172492
rtibia 22.623069
rfoot -21.792280 -26.251527
rtoes 3.984856
lfemur 2.818149 -10.064187 -25.235141
ltibia 9.879837
lfoot -18.457658 20.269426
ltoes -16.631724
9
root 9.216220 16.950400 -31.922700 0.991425 1.634016 -0.064521
lowerback -1.381930 -0.960004 -3.645237
upperback -2.043364 -1.313655 0.923548
thorax -1.158698 -0.586393 2.947978
lowerneck -18.080295 -2.947404 -3.060110
upperneck 31.712606 -4.249542 2.363326
head 14.310580 -1.811900 0.718837
rclavicle -0.000000 0.000000
rhumerus -42.308627 -9.382237 -76.163373
rradius 25.478330
rwrist -6.691267
rhand -4.362485 11.973894
rfingers 7.125020
rthumb 21.402468 -16.820943
lclavicle -0.000000 0.000000
lhumerus -33.511424 16.886035 71.273791
lradius 57.046338
lwrist -0.766069
lhand -5.497277 20.935593
lfingers 7.125020
lthumb 20.312334 49.823262
rfemur -37.607140 14.322698 11.902867
rtibia 22.586354
rfoot -21.924763 -26.454517
rtoes 5.480858
lfemur 5.985400 -10.180491 -25.365502
ltibia 8.036373
lfoot -17.531761 20.170800
ltoes -18.383120
